<?xml version="1.0" encoding="UTF-8" standalone="no"?>
<!-- Created with Inkscape (http://www.inkscape.org/) -->

<svg
   width="512"
   height="512"
   viewBox="0 0 512 512"
   version="1.1"
   id="svg1"
   inkscape:version="1.4 (e7c3feb100, 2024-10-09)"
   sodipodi:docname="icon.svg"
   inkscape:export-filename="icon.png"
   inkscape:export-xdpi="96"
   inkscape:export-ydpi="96"
   xmlns:inkscape="http://www.inkscape.org/namespaces/inkscape"
   xmlns:sodipodi="http://sodipodi.sourceforge.net/DTD/sodipodi-0.dtd"
   xmlns="http://www.w3.org/2000/svg"
   xmlns:svg="http://www.w3.org/2000/svg">
  <sodipodi:namedview
     id="namedview1"
     pagecolor="#ffffff"
     bordercolor="#000000"
     borderopacity="0.25"
     inkscape:showpageshadow="2"
     inkscape:pageopacity="0.0"
     inkscape:pagecheckerboard="0"
     inkscape:deskcolor="#d1d1d1"
     inkscape:document-units="px"
     inkscape:zoom="1.0869005"
     inkscape:cx="260.37343"
     inkscape:cy="328.91696"
     inkscape:window-width="1920"
     inkscape:window-height="995"
     inkscape:window-x="0"
     inkscape:window-y="0"
     inkscape:window-maximized="1"
     inkscape:current-layer="layer1" />
  <defs
     id="defs1">
    <filter
       style="color-interpolation-filters:sRGB;"
       inkscape:label="Blur"
       id="filter1"
       x="-0.052672271"
       y="-0.045360239"
       width="1.1053445"
       height="1.0907205">
      <feGaussianBlur
         stdDeviation="4 4"
         result="fbSourceGraphic"
         id="feGaussianBlur1" />
      <feColorMatrix
         result="fbSourceGraphicAlpha"
         in="fbSourceGraphic"
         values="0 0 0 -1 0 0 0 0 -1 0 0 0 0 -1 0 0 0 0 1 0"
         id="feColorMatrix1" />
      <feGaussianBlur
         id="feGaussianBlur2"
         stdDeviation="4 4"
         result="blur"
         in="fbSourceGraphic" />
    </filter>
  </defs>
  <g
     inkscape:label="Layer 1"
     inkscape:groupmode="layer"
     id="layer1">
    <g
       id="g17"
       transform="matrix(0.77194846,0,0,0.77194846,124.03557,100.61498)"
       style="stroke:#58da49;stroke-opacity:1;stroke-width:4.23862517;stroke-dasharray:none;fill:#000000;fill-opacity:1;filter:url(#filter1)">
	<path
   d="M 242.5,65.399 V 50.246 H 255 c 4.143,0 7.5,-3.358 7.5,-7.5 0,-4.142 -3.357,-7.5 -7.5,-7.5 h -40 c -4.143,0 -7.5,3.358 -7.5,7.5 0,4.142 3.357,7.5 7.5,7.5 h 12.5 V 65.399 C 119.372,69.36 32.623,158.544 32.623,267.623 32.623,379.214 123.409,470 235,470 346.591,470 437.377,379.214 437.377,267.623 437.377,158.544 350.628,69.36 242.5,65.399 Z M 235,455 C 131.68,455 47.623,370.943 47.623,267.623 47.623,164.303 131.68,80.246 235,80.246 c 103.32,0 187.377,84.057 187.377,187.377 C 422.377,370.943 338.32,455 235,455 Z"
   id="path1"
   style="stroke:#58da49;stroke-opacity:1;stroke-width:4.23862517;stroke-dasharray:none;fill:#000000;fill-opacity:1" />

	<path
   d="m 57.545,129.345 c 1.529,0 3.073,-0.466 4.404,-1.434 L 178.421,43.233 c 1.609,-1.17 2.688,-2.931 2.998,-4.896 0.31,-1.965 -0.172,-3.973 -1.342,-5.581 C 165.165,12.245 141.104,0 115.716,0 98.851,0 82.706,5.257 69.026,15.203 51.85,27.69 40.564,46.119 37.249,67.094 c -3.315,20.975 1.736,41.985 14.224,59.161 1.467,2.018 3.754,3.09 6.072,3.09 z M 52.065,69.436 C 54.754,52.419 63.911,37.467 77.845,27.336 88.946,19.266 102.041,15 115.716,15 c 18.081,0 35.331,7.651 47.461,20.77 L 59.542,111.116 C 52.418,98.502 49.77,83.959 52.065,69.436 Z"
   id="path2"
   style="stroke:#58da49;stroke-opacity:1;stroke-width:4.23862517;stroke-dasharray:none;fill:#000000;fill-opacity:1" />

	<path
   d="m 291.579,43.232 116.472,84.678 c 1.331,0.968 2.875,1.434 4.404,1.434 2.318,0 4.604,-1.071 6.072,-3.09 12.487,-17.176 17.539,-38.186 14.224,-59.161 C 429.436,46.118 418.15,27.69 400.975,15.202 387.294,5.257 371.149,0 354.284,0 c -25.389,0 -49.449,12.245 -64.361,32.756 -1.17,1.608 -1.652,3.616 -1.342,5.581 0.31,1.965 1.389,3.726 2.998,4.895 z M 354.284,15 c 13.675,0 26.77,4.266 37.87,12.336 13.935,10.131 23.091,25.083 25.78,42.1 2.296,14.523 -0.353,29.066 -7.477,41.68 L 306.823,35.77 C 318.953,22.651 336.203,15 354.284,15 Z"
   id="path3"
   style="stroke:#58da49;stroke-opacity:1;stroke-width:4.23862517;stroke-dasharray:none;fill:#000000;fill-opacity:1" />

	<path
   d="m 242.5,142.746 v -10 c 0,-4.142 -3.357,-7.5 -7.5,-7.5 -4.143,0 -7.5,3.358 -7.5,7.5 v 10 c 0,4.142 3.357,7.5 7.5,7.5 4.143,0 7.5,-3.358 7.5,-7.5 z"
   id="path4"
   style="stroke:#58da49;stroke-opacity:1;stroke-width:4.23862517;stroke-dasharray:none;fill:#000000;fill-opacity:1" />

	<path
   d="m 172.568,166.978 c 1.272,0 2.563,-0.324 3.743,-1.006 3.587,-2.071 4.816,-6.658 2.745,-10.245 l -5,-8.66 c -2.072,-3.588 -6.66,-4.817 -10.245,-2.745 -3.587,2.071 -4.816,6.658 -2.745,10.245 l 5,8.66 c 1.39,2.405 3.911,3.751 6.502,3.751 z"
   id="path5"
   style="stroke:#58da49;stroke-opacity:1;stroke-width:4.23862517;stroke-dasharray:none;fill:#000000;fill-opacity:1" />

	<path
   d="m 130.604,198.689 -8.66,-5 c -3.59,-2.073 -8.175,-0.843 -10.245,2.745 -2.071,3.587 -0.842,8.174 2.745,10.245 l 8.66,5 c 1.182,0.682 2.471,1.006 3.743,1.006 2.592,0 5.113,-1.345 6.502,-3.751 2.071,-3.587 0.841,-8.174 -2.745,-10.245 z"
   id="path6"
   style="stroke:#58da49;stroke-opacity:1;stroke-width:4.23862517;stroke-dasharray:none;fill:#000000;fill-opacity:1" />

	<path
   d="m 117.623,267.623 c 0,-4.142 -3.357,-7.5 -7.5,-7.5 h -10 c -4.143,0 -7.5,3.358 -7.5,7.5 0,4.142 3.357,7.5 7.5,7.5 h 10 c 4.143,0 7.5,-3.358 7.5,-7.5 z"
   id="path7"
   style="stroke:#58da49;stroke-opacity:1;stroke-width:4.23862517;stroke-dasharray:none;fill:#000000;fill-opacity:1" />

	<path
   d="m 118.2,342.563 c 1.272,0 2.563,-0.324 3.743,-1.006 l 8.66,-5 c 3.587,-2.071 4.816,-6.658 2.745,-10.245 -2.071,-3.587 -6.659,-4.816 -10.245,-2.745 l -8.66,5 c -3.587,2.071 -4.816,6.658 -2.745,10.245 1.39,2.406 3.91,3.751 6.502,3.751 z"
   id="path8"
   style="stroke:#58da49;stroke-opacity:1;stroke-width:4.23862517;stroke-dasharray:none;fill:#000000;fill-opacity:1" />

	<path
   d="m 166.066,372.02 -5,8.66 c -2.071,3.587 -0.842,8.174 2.745,10.245 1.182,0.682 2.471,1.006 3.743,1.006 2.592,0 5.113,-1.345 6.502,-3.751 l 5,-8.66 c 2.071,-3.587 0.842,-8.174 -2.745,-10.245 -3.589,-2.072 -8.175,-0.843 -10.245,2.745 z"
   id="path9"
   style="stroke:#58da49;stroke-opacity:1;stroke-width:4.23862517;stroke-dasharray:none;fill:#000000;fill-opacity:1" />

	<path
   d="m 227.5,392.5 v 10 c 0,4.142 3.357,7.5 7.5,7.5 4.143,0 7.5,-3.358 7.5,-7.5 v -10 c 0,-4.142 -3.357,-7.5 -7.5,-7.5 -4.143,0 -7.5,3.358 -7.5,7.5 z"
   id="path10"
   style="stroke:#58da49;stroke-opacity:1;stroke-width:4.23862517;stroke-dasharray:none;fill:#000000;fill-opacity:1" />

	<path
   d="m 293.688,369.274 c -3.587,2.071 -4.816,6.658 -2.745,10.245 l 5,8.66 c 1.39,2.406 3.91,3.751 6.502,3.751 1.272,0 2.563,-0.324 3.743,-1.006 3.587,-2.071 4.816,-6.658 2.745,-10.245 l -5,-8.66 c -2.071,-3.587 -6.659,-4.816 -10.245,-2.745 z"
   id="path11"
   style="stroke:#58da49;stroke-opacity:1;stroke-width:4.23862517;stroke-dasharray:none;fill:#000000;fill-opacity:1" />

	<path
   d="m 358.302,338.812 c 2.071,-3.587 0.842,-8.174 -2.745,-10.245 l -8.66,-5 c -3.59,-2.072 -8.176,-0.843 -10.245,2.745 -2.071,3.587 -0.842,8.174 2.745,10.245 l 8.66,5 c 1.182,0.682 2.471,1.006 3.743,1.006 2.592,0 5.113,-1.345 6.502,-3.751 z"
   id="path12"
   style="stroke:#58da49;stroke-opacity:1;stroke-width:4.23862517;stroke-dasharray:none;fill:#000000;fill-opacity:1" />

	<path
   d="m 352.377,267.623 c 0,4.142 3.357,7.5 7.5,7.5 h 10 c 4.143,0 7.5,-3.358 7.5,-7.5 0,-4.142 -3.357,-7.5 -7.5,-7.5 h -10 c -4.143,0 -7.5,3.357 -7.5,7.5 z"
   id="path13"
   style="stroke:#58da49;stroke-opacity:1;stroke-width:4.23862517;stroke-dasharray:none;fill:#000000;fill-opacity:1" />

	<path
   d="m 348.057,193.689 -8.66,5 c -3.587,2.071 -4.816,6.658 -2.745,10.245 1.39,2.406 3.91,3.751 6.502,3.751 1.272,0 2.563,-0.324 3.743,-1.006 l 8.66,-5 c 3.587,-2.071 4.816,-6.658 2.745,-10.245 -2.073,-3.587 -6.659,-4.817 -10.245,-2.745 z"
   id="path14"
   style="stroke:#58da49;stroke-opacity:1;stroke-width:4.23862517;stroke-dasharray:none;fill:#000000;fill-opacity:1" />

	<path
   d="m 297.432,166.978 c 2.592,0 5.113,-1.345 6.502,-3.751 l 5,-8.66 c 2.071,-3.587 0.842,-8.174 -2.745,-10.245 -3.59,-2.073 -8.175,-0.843 -10.245,2.745 l -5,8.66 c -2.071,3.587 -0.842,8.174 2.745,10.245 1.181,0.681 2.47,1.006 3.743,1.006 z"
   id="path15"
   style="stroke:#58da49;stroke-opacity:1;stroke-width:4.23862517;stroke-dasharray:none;fill:#000000;fill-opacity:1" />

	<path
   d="m 337.377,267.623 c 0,-4.142 -3.357,-7.5 -7.5,-7.5 H 256.21 c -1.087,-3.063 -2.819,-5.822 -5.033,-8.115 -0.089,-0.099 -0.172,-0.2 -0.267,-0.295 L 187.357,188.16 c -4.25,-4.25 -9.9,-6.59 -15.91,-6.59 -6.01,0 -11.66,2.341 -15.91,6.59 -8.771,8.773 -8.771,23.047 0,31.82 L 212.5,276.943 V 322.5 c 0,12.407 10.094,22.5 22.5,22.5 12.406,0 22.5,-10.093 22.5,-22.5 v -47.377 h 72.377 c 4.143,0 7.5,-3.358 7.5,-7.5 z m -109.877,0 c 0,-4.136 3.364,-7.5 7.5,-7.5 4.136,0 7.5,3.364 7.5,7.5 0,4.136 -3.364,7.5 -7.5,7.5 -4.136,0 -7.5,-3.365 -7.5,-7.5 z m -61.355,-68.856 c 1.416,-1.417 3.3,-2.197 5.303,-2.197 2.003,0 3.887,0.78 5.303,2.197 l 48.555,48.555 c -4.629,2.22 -8.386,5.977 -10.606,10.606 l -48.554,-48.554 c -2.926,-2.925 -2.926,-7.683 -10e-4,-10.607 z M 235,330 c -4.136,0 -7.5,-3.364 -7.5,-7.5 v -33.667 c 2.347,0.833 4.871,1.29 7.5,1.29 2.629,0 5.153,-0.458 7.5,-1.29 V 322.5 c 0,4.136 -3.364,7.5 -7.5,7.5 z"
   id="path16"
   style="stroke:#58da49;stroke-opacity:1;stroke-width:4.23862517;stroke-dasharray:none;fill:#000000;fill-opacity:1" />

	<path
   d="M 235,95.246 C 139.951,95.246 62.623,172.574 62.623,267.623 62.623,362.672 139.951,440 235,440 c 40.188,0 79.34,-14.193 110.243,-39.965 3.181,-2.653 3.609,-7.382 0.956,-10.563 -2.652,-3.18 -7.382,-3.609 -10.563,-0.956 C 307.424,412.043 271.685,425 235,425 148.222,425 77.623,354.401 77.623,267.623 c 0,-86.778 70.599,-157.377 157.377,-157.377 86.778,0 157.377,70.599 157.377,157.377 0,36.684 -12.957,72.423 -36.483,100.637 -2.653,3.181 -2.225,7.911 0.956,10.563 3.185,2.654 7.911,2.225 10.563,-0.957 25.771,-30.904 39.964,-70.056 39.964,-110.243 C 407.377,172.574 330.049,95.246 235,95.246 Z"
   id="path17"
   style="stroke:#58da49;stroke-opacity:1;stroke-width:4.23862517;stroke-dasharray:none;fill:#000000;fill-opacity:1" />

</g>
  </g>
</svg>
